<?xml version="1.0" encoding="UTF-8"?>
<svg id="Layer_1" data-name="Layer 1" xmlns="http://www.w3.org/2000/svg" viewBox="0 0 1121.05 497.37">
  <defs>
    <style>
      .cls-1 {
        fill: #8dc63f;
      }

      .cls-2, .cls-3 {
        fill: #231f20;
      }

      .cls-4 {
        fill: #ed1c24;
      }

      .cls-5 {
        fill: #00aeef;
      }

      .cls-3 {
        font-family: Inter-Regular, Inter, Arial, sans-serif;
        font-size: 49px;
        font-variation-settings: 'wght' 400, 'slnt' 0;
      }
    </style>
  </defs>
  <g>
    <path class="cls-2" d="M0,12.1h55.51l74.33,181.43h2.93L207.1,12.1h55.51v250.38h-43.52V90.47h-2.33l-69.2,171.28h-32.52L45.85,90.1h-2.33v172.38H0V12.1Z"/>
    <path class="cls-2" d="M332.29,48.05c-7.01,0-13.04-2.36-18.09-7.09-5.05-4.73-7.58-10.39-7.58-16.99s2.53-12.25,7.58-16.93c5.05-4.68,11.08-7.03,18.09-7.03s13.15,2.37,18.16,7.09c5.01,4.73,7.52,10.39,7.52,16.99s-2.51,12.25-7.52,16.93c-5.01,4.68-11.06,7.03-18.16,7.03ZM310.04,262.48V74.7h44.26v187.79h-44.26Z"/>
    <path class="cls-2" d="M399.78,262.48V74.7h42.91v31.3h1.96c3.43-10.84,9.31-19.22,17.67-25.13,8.35-5.91,17.91-8.86,28.67-8.86,2.44,0,5.2.1,8.25.3,3.06.21,5.6.51,7.64.92v40.71c-1.88-.65-4.83-1.24-8.87-1.77-4.03-.53-7.93-.79-11.68-.79-8.07,0-15.3,1.73-21.7,5.2-6.4,3.46-11.43,8.25-15.1,14.36-3.67,6.11-5.5,13.16-5.5,21.15v110.4h-44.26Z"/>
    <path class="cls-2" d="M536.33,262.48V74.7h42.91v31.3h1.96c3.43-10.84,9.31-19.22,17.67-25.13,8.35-5.91,17.91-8.86,28.67-8.86,2.44,0,5.2.1,8.25.3,3.06.21,5.6.51,7.64.92v40.71c-1.88-.65-4.83-1.24-8.87-1.77-4.03-.53-7.93-.79-11.68-.79-8.07,0-15.3,1.73-21.7,5.2-6.4,3.46-11.43,8.25-15.1,14.36-3.67,6.11-5.5,13.16-5.5,21.15v110.4h-44.26Z"/>
    <path class="cls-2" d="M923.41,262.48V74.7h42.91v31.3h1.96c3.43-10.84,9.31-19.22,17.67-25.13,8.35-5.91,17.91-8.86,28.67-8.86,2.44,0,5.2.1,8.25.3,3.06.21,5.6.51,7.64.92v40.71c-1.88-.65-4.83-1.24-8.87-1.77-4.03-.53-7.93-.79-11.68-.79-8.07,0-15.3,1.73-21.7,5.2-6.4,3.46-11.43,8.25-15.1,14.36-3.67,6.11-5.5,13.16-5.5,21.15v110.4h-44.26Z"/>
  </g>
  <text class="cls-3" transform="translate(405.74 473.36)"><tspan x="0" y="0">A forma impressa das ideias</tspan></text>
  <g>
    <path class="cls-1" d="M749.68,84.44l-53.47-76.2h-62.04l76.25,108.66c9.67-14.24,23.28-25.56,39.26-32.46Z"/>
    <path class="cls-2" d="M860.92,116.9l76.25-108.66h-62.04l-53.47,76.2c15.98,6.9,29.59,18.23,39.26,32.46Z"/>
    <path class="cls-5" d="M710.42,218.95l-76.25,108.66h62.04l53.47-76.2c-15.98-6.9-29.59-18.23-39.26-32.46Z"/>
    <path class="cls-4" d="M860.92,218.95c-9.67,14.24-23.28,25.56-39.26,32.46l53.47,76.2h62.04l-76.25-108.66Z"/>
  </g>
</svg>